<svg width="24" height="24" viewBox="0 0 24 24" fill="none" xmlns="http://www.w3.org/2000/svg">
<g clip-path="url(#clip0_565_19907)">
<path d="M16.6448 7.78948C16.6448 7.67162 16.5483 7.5752 16.4305 7.5752L14.6626 7.58323L12.0001 10.7573L9.34029 7.58591L7.56975 7.57787C7.4519 7.57787 7.35547 7.67162 7.35547 7.79216C7.35547 7.84305 7.37422 7.89127 7.40636 7.93145L10.8912 12.0832L7.40636 16.2323C7.37399 16.2716 7.35604 16.3207 7.35547 16.3716C7.35547 16.4895 7.4519 16.5859 7.56975 16.5859L9.34029 16.5779L12.0001 13.4038L14.6599 16.5752L16.4278 16.5832C16.5456 16.5832 16.6421 16.4895 16.6421 16.3689C16.6421 16.3181 16.6233 16.2698 16.5912 16.2297L13.1117 12.0806L16.5965 7.92877C16.6287 7.89127 16.6448 7.84037 16.6448 7.78948Z" fill="#766CFD"/>
<path d="M12 0.0263672C5.37321 0.0263672 0 5.39958 0 12.0264C0 18.6532 5.37321 24.0264 12 24.0264C18.6268 24.0264 24 18.6532 24 12.0264C24 5.39958 18.6268 0.0263672 12 0.0263672ZM12 21.9907C6.49821 21.9907 2.03571 17.5282 2.03571 12.0264C2.03571 6.52458 6.49821 2.06208 12 2.06208C17.5018 2.06208 21.9643 6.52458 21.9643 12.0264C21.9643 17.5282 17.5018 21.9907 12 21.9907Z" fill="#766CFD"/>
</g>
<defs>
<clipPath id="clip0_565_19907">
<rect width="24" height="24" fill="white"/>
</clipPath>
</defs>
</svg>
