<svg width="15" height="8" viewBox="0 0 15 8" fill="none" xmlns="http://www.w3.org/2000/svg">
<path d="M15 1.17032C15.0005 1.31972 14.9676 1.46733 14.9035 1.60231C14.8395 1.73729 14.7461 1.85621 14.63 1.95032L8.63003 6.78032C8.4511 6.92741 8.22666 7.00781 7.99503 7.00781C7.76341 7.00781 7.53896 6.92741 7.36003 6.78032L1.36003 1.78032C1.15581 1.61059 1.02739 1.36667 1.00301 1.10225C0.978631 0.837822 1.06029 0.574541 1.23003 0.370325C1.39977 0.166108 1.64368 0.037684 1.90811 0.0133042C2.17253 -0.0110755 2.43581 0.0705857 2.64003 0.240324L8.00003 4.71032L13.36 0.390325C13.5068 0.268042 13.6856 0.190365 13.8751 0.166485C14.0647 0.142606 14.2571 0.173522 14.4296 0.255579C14.6021 0.337635 14.7475 0.467394 14.8486 0.629505C14.9497 0.791615 15.0023 0.979291 15 1.17032Z" fill="#766CFD"/>
</svg>
